# xmcd CD database file
# Copyright (C) 1996 Ti Kan
#
# Track frame offsets:
#  150
#  18570
#  35975
#  50960
#  75352
#  102157
#  119815
#  137802
#
# Disc length: 2063 seconds
#
# Revision: 1
# Processed by: cddbd v1.4b41PL1 Copyright (c) Steve Scherf et al.
# Submitted via: CDWizzard Release:4.15
#
DISCID=73080d08
DTITLE=Diana Ross - Diana
DYEAR=1900
DGENRE=
TTITLE0=Upside Down
TTITLE1=Tenderness
TTITLE2=Friend to Friend
TTITLE3=I'm Coming Out
TTITLE4=Have Fun (Again)
TTITLE5=My Old Piano
TTITLE6=Now That You're Gone
TTITLE7=Give Up
EXTD=
EXTT0=
EXTT1=
EXTT2=
EXTT3=
EXTT4=
EXTT5=
EXTT6=
EXTT7=
PLAYORDER=
